<svg xmlns="http://www.w3.org/2000/svg" viewBox="0 0 160 160" role="img" aria-label="中立的な整理と支援のイラスト">
  <defs>
    <linearGradient id="lineBlue" x1="35" y1="22" x2="132" y2="138" gradientUnits="userSpaceOnUse">
      <stop offset="0" stop-color="#78cfff"/>
      <stop offset="1" stop-color="#0057d9"/>
    </linearGradient>
    <filter id="softShadow" x="-20%" y="-20%" width="140%" height="140%">
      <feDropShadow dx="0" dy="10" stdDeviation="10" flood-color="#0057d9" flood-opacity=".10"/>
    </filter>
  </defs>

  <circle cx="80" cy="80" r="56" fill="#eef7ff"/>
  <circle cx="38" cy="42" r="6" fill="#d9efff"/>
  <rect x="119" y="34" width="10" height="10" rx="3" fill="#d8f5f1" transform="rotate(18 124 39)"/>
  <path d="M31 119l13 8-14 8z" fill="#34c9ff" opacity=".45"/>
  <circle cx="122" cy="122" r="4" fill="#d7e5ff"/>

  <g filter="url(#softShadow)">
    <path d="M76 60c0-12 9-21 21-21s21 9 21 21v26H76z" fill="#ffffff"/>
    <path d="M82 55c3-9 11-14 21-11 8 2 13 8 13 17v18" fill="none" stroke="#7ebeff" stroke-width="6" stroke-linecap="round"/>
    <circle cx="98" cy="65" r="17" fill="#ffffff" stroke="#9dcbff" stroke-width="4"/>
    <path d="M92 66h.5M103 66h.5" stroke="#0057d9" stroke-width="4" stroke-linecap="round"/>
    <path d="M94 75c3 3 9 3 12 0" fill="none" stroke="#0057d9" stroke-width="3" stroke-linecap="round"/>

    <path d="M58 88c6-8 15-12 27-12h28c11 0 20 9 20 20v20c0 7-5 12-12 12H65c-9 0-16-7-16-16v-7c0-6 3-12 9-17z" fill="#ffffff" stroke="#b7d7ff" stroke-width="4"/>
    <path d="M62 91c8-7 17-10 28-10h21c9 0 16 7 16 16v26H63z" fill="#eaf6ff"/>
    <path d="M91 82l8 11 9-11" fill="none" stroke="#0057d9" stroke-width="4" stroke-linecap="round" stroke-linejoin="round"/>

    <rect x="70" y="92" width="42" height="48" rx="7" fill="#ffffff" stroke="#7ebeff" stroke-width="4"/>
    <path d="M80 106h22M80 118h18M80 130h14" stroke="#9dcbff" stroke-width="4" stroke-linecap="round"/>

    <circle cx="50" cy="74" r="15" fill="#ffffff" stroke="url(#lineBlue)" stroke-width="6"/>
    <path d="M61 85l16 16" stroke="#0057d9" stroke-width="7" stroke-linecap="round"/>
    <path d="M45 73l7-7" stroke="#9dcbff" stroke-width="4" stroke-linecap="round"/>
    <path d="M33 62c-4 3-7 7-8 12M48 51c5-1 10 0 15 2" fill="none" stroke="#34c9ff" stroke-width="4" stroke-linecap="round" opacity=".7"/>
  </g>
</svg>
